<svg xmlns="http://www.w3.org/2000/svg" width="536" height="399.5" viewBox="0 0 536 399.5">
  <g id="bikestore_Insurance_logo" data-name="bikestore Insurance logo" transform="translate(-752 -2544.074)">
    <g id="Bike" transform="translate(836.77 2550.574)">
      <circle id="Ellipse_4" data-name="Ellipse 4" cx="70.827" cy="70.827" r="70.827" transform="translate(0 50.98)" fill="none" stroke="#2d2201" stroke-miterlimit="10" stroke-width="12"/>
      <circle id="Ellipse_5" data-name="Ellipse 5" cx="70.827" cy="70.827" r="70.827" transform="translate(223.488 50.98)" fill="none" stroke="#2d2201" stroke-miterlimit="10" stroke-width="12"/>
      <path id="Path_26" data-name="Path 26" d="M309.939,129.381,260.172,7.574H239.249" transform="translate(-15.761 -7.574)" fill="none" stroke="#2d2201" stroke-linecap="round" stroke-linejoin="round" stroke-width="13"/>
      <line id="Line_9" data-name="Line 9" x1="98.573" y1="0.506" transform="translate(158.169 30.963)" fill="none" stroke="#2d2201" stroke-linecap="round" stroke-linejoin="round" stroke-width="13"/>
      <path id="Path_27" data-name="Path 27" d="M180.618,14.048a41.975,41.975,0,0,0-7.419.426v45.04a44,44,0,0,0,7.419.282,22.874,22.874,0,0,0,0-45.749Z" transform="translate(-34.812 -5.707)" fill="#d2b02a"/>
      <line id="Line_10" data-name="Line 10" x1="15.675" y2="0.137" transform="translate(125.103 19.12)" fill="none" stroke="#d2b02a" stroke-linecap="round" stroke-miterlimit="10" stroke-width="7"/>
      <line id="Line_11" data-name="Line 11" x1="15.675" y2="0.137" transform="translate(125.103 44.244)" fill="none" stroke="#d2b02a" stroke-linecap="round" stroke-miterlimit="10" stroke-width="7"/>
    </g>
    <g id="Text" transform="translate(752 2794.033)">
      <path id="Path_28" data-name="Path 28" d="M33.283,269.3H0V197.849H32.162c14.556,0,23.206,7.226,23.206,18.524,0,8.652-5.19,14.249-12.111,16.283A17.327,17.327,0,0,1,57,249.858C57,261.664,48.346,269.3,33.283,269.3ZM28.8,211.793H17.4v14.961H28.8c5.7,0,8.855-2.545,8.855-7.429S34.5,211.793,28.8,211.793Zm1.221,27.683H17.4v15.777H30.228c5.8,0,9.161-2.646,9.161-7.736S35.826,239.476,30.026,239.476Z" transform="translate(0 -196.831)" fill="#2d2201"/>
      <path id="Path_29" data-name="Path 29" d="M52.061,197.849h17.4V269.3h-17.4Z" transform="translate(15.016 -196.831)" fill="#2d2201"/>
      <path id="Path_30" data-name="Path 30" d="M92.77,237.747V269.3h-17.4V197.849h17.4V229.2l23.817-31.348h20.458L109.36,232.861l28.7,36.437H116.791Z" transform="translate(21.739 -196.831)" fill="#2d2201"/>
      <path id="Path_31" data-name="Path 31" d="M174.194,211.793H147.832v14.452H171.14v13.436H147.832v15.674h26.361V269.3H130.428V197.849h43.766Z" transform="translate(37.621 -196.831)" fill="#d2b02a"/>
      <path id="Path_32" data-name="Path 32" d="M199.473,270.239c-15.368,0-27.378-7.634-27.887-22.086H190.11c.509,5.5,3.968,8.142,8.854,8.142,5.089,0,8.347-2.543,8.347-6.717,0-13.231-35.725-6.107-35.521-31.451,0-13.536,11.093-21.067,26.055-21.067,15.573,0,26.056,7.736,26.77,21.374H205.784c-.305-4.58-3.562-7.329-8.245-7.43-4.172-.1-7.327,2.036-7.327,6.514,0,12.417,35.319,6.82,35.319,30.737C225.53,260.263,216.166,270.239,199.473,270.239Z" transform="translate(49.492 -197.059)" fill="#2d2201"/>
      <path id="Path_33" data-name="Path 33" d="M218.749,197.849h55.266v13.944H255.084V269.3h-17.4V211.793H218.749Z" transform="translate(63.096 -196.831)" fill="#2d2201"/>
      <path id="Path_34" data-name="Path 34" d="M302.892,270.239c-20.254,0-36.744-15.165-36.744-36.641s16.489-36.539,36.744-36.539c20.355,0,36.539,15.063,36.539,36.539S323.145,270.239,302.892,270.239Zm0-15.879c11.4,0,18.829-8.243,18.829-20.762,0-12.723-7.43-20.763-18.829-20.763-11.6,0-18.932,8.04-18.932,20.763C283.959,246.116,291.288,254.36,302.892,254.36Z" transform="translate(76.768 -197.059)" fill="#2d2201"/>
      <path id="Path_35" data-name="Path 35" d="M359.744,197.849c17.506,0,26.258,10.076,26.258,22.494,0,8.956-4.886,17.4-15.877,20.66l16.488,28.3H366.969l-14.86-26.972h-4.172V269.3H330.532V197.849ZM358.726,212.3H347.938v17.71h10.788c6.513,0,9.567-3.359,9.567-8.956C368.292,215.762,365.239,212.3,358.726,212.3Z" transform="translate(95.339 -196.831)" fill="#2d2201"/>
      <path id="Path_36" data-name="Path 36" d="M425.8,211.793h-26.36v14.452h23.307v13.436H399.444v15.674H425.8V269.3H382.04V197.849H425.8Z" transform="translate(110.196 -196.831)" fill="#2d2201"/>
    </g>
    <g id="Group_4" data-name="Group 4" transform="translate(790.294 2885.442)">
      <path id="Path_37" data-name="Path 37" d="M51.292,325.355H35.93V268.771H51.292Z" transform="translate(-35.93 -267.997)" fill="#2d2201"/>
      <path id="Path_38" data-name="Path 38" d="M102.468,325.355H89.648L69.2,295.626h-.331v29.729H53.51V268.771H66.55L86.664,298.39h.442V268.771h15.362Z" transform="translate(-30.859 -267.997)" fill="#2d2201"/>
      <path id="Path_39" data-name="Path 39" d="M120.359,280.77c-4.752,0-6.824,1.823-6.852,4.31-.138,2.708,2.265,4.281,7.626,5.415l4.641.995c12.489,2.68,17.627,8.73,17.683,17.35-.055,11.163-8.648,17.351-22.987,17.351-14.754,0-24.368-6.355-24.424-20.556h14.588c.249,5.194,3.73,7.957,9.616,7.957,4.917,0,7.459-1.961,7.514-4.753-.055-2.569-2.21-4.144-8.509-5.525l-5.637-1.215c-10.029-2.156-16.162-7.074-16.135-15.915C97.4,275.41,106.9,268.17,120.359,268.17c13.7,0,22.269,7.349,22.325,18.457h-14.7C127.681,282.952,125.332,280.77,120.359,280.77Z" transform="translate(-18.59 -268.17)" fill="#2d2201"/>
      <path id="Path_40" data-name="Path 40" d="M186.229,268.771V305.02c0,12.93-9.89,21-24.424,21-14.643,0-24.424-8.068-24.424-21V268.771h15.362v34.923a9.062,9.062,0,0,0,18.124,0V268.771Z" transform="translate(-6.667 -267.997)" fill="#2d2201"/>
      <path id="Path_41" data-name="Path 41" d="M180.948,268.771h24.424c12.571,0,21,7.184,21,19.23,0,7.847-3.592,13.344-9.616,16.246l11.494,21.109H211.56l-9.947-18.677h-5.3v18.677H180.948Zm20.777,25.971c5.387,0,8.62-1.907,8.62-6.741,0-4.864-3.233-6.964-8.62-6.964h-5.417v13.705Z" transform="translate(5.899 -267.997)" fill="#2d2201"/>
      <path id="Path_42" data-name="Path 42" d="M219.8,325.355l18.676-56.584h21l18.677,56.584H261.572l-3.261-10.831H239.634l-3.261,10.831Zm35.033-22.325-5.636-18.677h-.443l-5.636,18.677Z" transform="translate(17.105 -267.997)" fill="#2d2201"/>
      <path id="Path_43" data-name="Path 43" d="M318.239,325.355H305.418l-20.445-29.729h-.331v29.729H269.281V268.771h13.04l20.113,29.619h.443V268.771h15.362Z" transform="translate(31.378 -267.997)" fill="#2d2201"/>
      <path id="Path_44" data-name="Path 44" d="M350.224,290.164c-.442-5.14-3.813-8.621-9.725-8.621-7.736,0-11.935,5.857-11.935,15.693,0,10.389,4.337,15.693,11.824,15.693,5.637,0,9.063-3.011,9.836-7.847l15.582.111c-.773,9.614-9.172,21.109-25.749,21.109-15.582,0-27.3-10.251-27.3-29.066,0-18.9,12.047-29.066,27.3-29.066,14.257,0,24.534,7.959,25.749,21.994Z" transform="translate(43.919 -268.17)" fill="#2d2201"/>
      <path id="Path_45" data-name="Path 45" d="M359.327,268.771h40.78v12.378H374.689v9.725h23.318v12.377H374.689v9.726H400v12.378h-40.67Z" transform="translate(57.351 -267.997)" fill="#2d2201"/>
    </g>
  </g>
</svg>
