<svg xmlns="http://www.w3.org/2000/svg" width="42.854" height="42.86" viewBox="0 0 42.854 42.86">
  <g id="instagram_design" transform="translate(0.688 0.741)">
    <path id="Path_19" data-name="Path 19" d="M2.107,2.233C-1.248,5.722-.563,9.427-.563,20.684c0,9.347-1.627,18.718,6.9,20.921,2.662.684,26.279.684,28.941,0,3.555-.918,6.442-3.8,6.843-8.821.058-.7.058-23.475,0-24.193C41.7,3.243,38.408.155,34.061-.471c-.993-.142-1.193-.184-6.3-.192C9.643-.671,5.679-1.472,2.107,2.233Z" transform="translate(0)" fill="#705e16"/>
    <path id="Path_20" data-name="Path 20" d="M83.392,66.837c-6.468,0-12.6-.576-14.946,5.441-.968,2.487-.826,5.716-.826,10.34,0,4.056-.134,7.87.826,10.331,2.337,6.017,8.529,5.441,14.946,5.441,6.192,0,12.576.643,14.946-5.441.968-2.512.826-5.691.826-10.331,0-6.167.342-10.139-2.645-13.127-3.029-3.029-7.127-2.654-13.127-2.654Zm-1.41,2.846c13.486-.025,15.2-1.519,14.254,19.3-.334,7.369-5.942,6.559-12.835,6.559-12.568,0-12.927-.359-12.927-12.935-.008-12.726.985-12.918,11.508-12.927Zm9.831,2.612a1.894,1.894,0,1,0,1.894,1.894A1.9,1.9,0,0,0,91.813,72.295Zm-8.42,2.22a8.1,8.1,0,1,0,8.095,8.1,8.106,8.106,0,0,0-8.095-8.1Zm0,2.837c6.952,0,6.96,10.515,0,10.515S76.432,77.352,83.392,77.352Z" transform="translate(-62.601 -61.925)" fill="#fff"/>
  </g>
</svg>
